<svg width="1758" height="496" viewBox="0 0 1758 496" fill="none" xmlns="http://www.w3.org/2000/svg">
<path d="M462.531 400.423L466.542 392.079C466.644 391.867 466.817 391.698 467.03 391.601L527.722 364.067C528.017 363.933 528.358 363.951 528.638 364.114L558.959 381.795C559.73 382.245 559.571 383.402 558.708 383.627L481.934 403.634C481.819 403.664 481.701 403.674 481.583 403.662L463.333 401.852C462.642 401.783 462.23 401.049 462.531 400.423Z" fill="#172B4D"/>
<g clip-path="url(#clip0_71549_130)">
<path d="M466.165 335.843L449.146 381.929L468.986 395.127L526.573 367.775L544.237 344.003L501.731 330.713L466.165 335.843Z" fill="white" stroke="#36B37E" stroke-width="1.63467" stroke-miterlimit="10" stroke-linejoin="round"/>
<path d="M486.19 354.382L488.083 358.369L526.573 367.776L529.205 364.173L544.237 344.004L501.731 330.713L486.19 354.382Z" fill="#C5E9DA" stroke="#36B37E" stroke-width="1.63467" stroke-miterlimit="10" stroke-linejoin="round"/>
<path d="M501.731 330.714L488.342 352.817L449.146 381.93" fill="white"/>
<path d="M501.731 330.714L488.342 352.817L449.146 381.93" stroke="#36B37E" stroke-width="1.63467" stroke-miterlimit="10" stroke-linejoin="round"/>
<path d="M481.217 358.011L483.041 347.372L493.185 344.726L488.083 358.369L481.217 358.011Z" fill="#172B4D" stroke="#36B37E" stroke-width="1.63467" stroke-miterlimit="10" stroke-linejoin="round"/>
<path d="M526.573 367.776L488.083 358.369" stroke="#36B37E" stroke-width="1.63467" stroke-miterlimit="10" stroke-linejoin="round"/>
<path d="M513.258 364.509L519.947 359.16L519.224 366.019L514.104 369.717L513.258 364.509Z" fill="white" stroke="#36B37E" stroke-width="1.63467" stroke-miterlimit="10" stroke-linejoin="round"/>
<path d="M519.947 359.16L518.298 335.875" stroke="#36B37E" stroke-width="1.63467" stroke-miterlimit="10" stroke-linejoin="round"/>
<mask id="mask0_71549_130" style="mask-type:alpha" maskUnits="userSpaceOnUse" x="448" y="357" width="80" height="39">
<path d="M449.146 381.929L481.217 358.01L492.524 359.336L526.573 367.776L522.439 369.739L468.986 395.127L449.146 381.929Z" fill="white" stroke="#36B37E" stroke-width="1.63467" stroke-miterlimit="10" stroke-linejoin="round"/>
</mask>
<g mask="url(#mask0_71549_130)">
<path d="M482.141 369.535L486.534 360.209L496.322 359.859L500.434 350.893L491.103 351.252L495.4 342.199L485.797 342.462L481.5 351.515L476.835 360.744L466.775 360.998L462.012 370.499L451.583 370.928L446.355 380.876L456.968 380.36L467.309 379.746L472.169 369.973L482.141 369.535Z" fill="#36B37E"/>
<path d="M491.928 369.184L501.628 368.649L505.652 359.499L496.322 359.858L491.928 369.184Z" fill="#36B37E"/>
<path d="M477.466 379.22L487.535 378.51L491.928 369.184L482.141 369.534L477.466 379.22Z" fill="#C5E9DA"/>
<path d="M482.86 388.196L492.744 387.573L497.235 377.975L487.535 378.51L482.86 388.196Z" fill="#36B37E"/>
<path d="M472.791 388.907L477.466 379.221L467.309 379.747L462.45 389.52L457.397 399.838L467.835 398.952L478.176 398.339L482.86 388.196L472.791 388.907Z" fill="#36B37E"/>
<path d="M504.633 342.111L500.434 350.893L509.764 350.533L505.652 359.499L514.983 359.14L518.91 350.261L522.741 341.655L513.779 341.84L517.697 333.418L521.431 325.084L512.654 325.181L508.736 333.602L499.502 333.69L495.4 342.199L504.633 342.111Z" fill="#36B37E"/>
<path d="M501.628 368.649L497.235 377.975L506.75 377.528L516.178 376.896L520.202 367.746L524.129 358.867L514.983 359.139L510.959 368.29L501.628 368.649Z" fill="#36B37E"/>
<path d="M498.226 396.733L502.629 386.951L492.744 387.573L488.342 397.356L498.226 396.733Z" fill="#36B37E"/>
<path d="M473.492 408.481L483.658 407.498L488.342 397.356L478.176 398.338L473.492 408.481Z" fill="#36B37E"/>
</g>
</g>
<path d="M276.599 385.792L178.961 390.078C178.6 390.078 178.058 390.26 177.696 390.621L145.136 423.148C144.774 423.51 144.593 424.051 144.591 424.773L145.96 455.81C145.958 456.893 146.858 457.794 148.122 457.612L231.876 448.473C232.417 448.291 232.959 448.11 233.321 447.749L251.432 420.294L251.613 420.114L278.395 389.038C279.301 387.773 278.223 385.609 276.599 385.792Z" fill="#172B4D"/>
<path d="M237.171 214.281L127.229 222.937L98.7385 266.881L126.148 382.44L158.594 407.636L222.349 402.633L233.942 369.449L266.733 333.451L237.171 214.281Z" fill="white" stroke="#36B37E" stroke-width="1.55764" stroke-miterlimit="10" stroke-linejoin="round"/>
<path d="M233.942 369.449L175.867 266.162L237.171 214.281L266.733 333.451L233.942 369.449Z" fill="#C5E9DA" stroke="#36B37E" stroke-width="1.55764" stroke-miterlimit="10" stroke-linejoin="round"/>
<path d="M222.349 402.634L207.595 322.319L233.942 369.449L222.349 402.634Z" fill="white" stroke="#36B37E" stroke-width="1.55764" stroke-miterlimit="10" stroke-linejoin="round"/>
<path d="M98.7384 266.882L175.867 266.162" stroke="#36B37E" stroke-width="1.55764" stroke-miterlimit="10" stroke-linejoin="round"/>
<path d="M190.238 253.966L169.046 255.693L162.831 266.222L185.905 283.858L190.238 253.966Z" fill="#C5E9DA" stroke="#36B37E" stroke-width="1.55764" stroke-miterlimit="10" stroke-linejoin="round"/>
<mask id="mask1_71549_130" style="mask-type:alpha" maskUnits="userSpaceOnUse" x="88" y="200" width="147" height="80">
<path d="M144.707 243.643L159.133 247.954L168.721 238.016L182.426 242.328L172.838 251.905L186.363 256.037L176.956 265.795L163.25 261.844L149.184 257.893L139.054 268.013L124.266 264.063L113.775 274.544L98.2648 270.596L109.298 259.933L119.79 249.452L134.577 253.763L144.707 243.643Z" fill="#C5E9DA"/>
<path d="M154.836 233.884L164.604 224.126L178.308 228.438L168.721 238.016L154.836 233.884Z" fill="#36B37E"/>
<path d="M130.281 239.332L140.59 229.392L154.836 233.884L144.707 243.643L130.281 239.332Z" fill="#36B37E"/>
<path d="M125.984 224.901L136.294 214.962L150.719 219.634L140.59 229.392L125.984 224.901Z" fill="#36B37E"/>
<path d="M115.314 234.841L130.281 239.331L119.79 249.452L104.642 245.142L88.9529 240.652L99.9854 230.351L110.837 220.23L125.984 224.901L115.314 234.841Z" fill="#36B37E"/>
<path d="M195.589 246.46L182.426 242.327L191.652 232.75L178.308 228.438L187.714 219.041L200.697 223.354L213.319 227.668L204.634 237.063L217.257 241.016L229.699 245.149L221.195 254.364L208.572 250.412L199.346 259.989L186.363 256.037L195.589 246.46Z" fill="#5E78A5"/>
<path d="M212.33 263.94L203.465 273.517L190.3 269.746L199.346 259.988L212.33 263.94Z" fill="#36B37E"/>
<path d="M234.444 222.766L225.941 231.981L213.319 227.668L222.184 218.452L234.444 222.766Z" fill="#36B37E"/>
<path d="M164.604 224.126L150.72 219.634L160.307 210.056L170.074 200.659L183.598 205.152L196.759 210.006L187.715 219.041L174.191 214.548L164.604 224.126Z" fill="#36B37E"/>
<path d="M131.998 200.531L146.242 205.384L136.294 214.962L121.508 210.291L131.998 200.531Z" fill="#36B37E"/>
<path d="M95.5099 215.379L106.362 205.258L121.508 210.29L110.837 220.23L95.5099 215.379Z" fill="#36B37E"/>
<path d="M190.3 269.746L181.073 279.684L167.187 275.913L176.956 265.794L190.3 269.746Z" fill="#36B37E"/>
</mask>
<g mask="url(#mask1_71549_130)">
<path d="M126.71 223.457L236.267 215.184L186.531 255.951L168.101 257.395L161.698 267.327L98.4537 267.166L126.71 223.457Z" fill="#36B37E" stroke="#36B37E" stroke-width="1.55764" stroke-miterlimit="10" stroke-linejoin="round"/>
</g>
<path d="M1475.28 488.708L1656.94 459.478L1757.49 443.299L1701.27 384.507L1436.94 427.039L1445.27 454.577L1475.28 488.708Z" fill="#172B4D"/>
<path d="M1638.62 7.95481L1692.68 40.5089L1542.47 464.605L1475.28 488.708L1445.27 454.577L1436.94 427.04L1535.52 184.972L1559.46 162.785L1549.81 139.816L1594.16 26.567L1638.62 7.95481Z" fill="white"/>
<mask id="mask2_71549_130" style="mask-type:alpha" maskUnits="userSpaceOnUse" x="1436" y="7" width="257" height="482">
<path d="M1638.62 7.95481L1692.68 40.5089L1542.47 464.605L1475.28 488.708L1445.27 454.577L1436.94 427.04L1535.52 184.972L1559.46 162.785L1549.81 139.816L1594.16 26.567L1638.62 7.95481Z" fill="white"/>
</mask>
<g mask="url(#mask2_71549_130)">
<path d="M1527.77 227.931L1535.26 206.099L1556.3 202.943L1563.45 181.854L1542.63 184.974L1549.85 164.331L1529 167.228L1521.37 188.166L1513.58 209.587L1491.65 212.887L1483.3 235.086L1460.55 238.976L1451.67 262.177L1474.84 257.991L1497.59 254.1L1505.65 231.49L1527.77 227.931Z" fill="#C5E9DA"/>
<path d="M1549.18 224.256L1570.18 220.877L1577.08 199.6L1556.3 202.943L1549.18 224.256Z" fill="#36B37E"/>
<path d="M1519.87 250.059L1541.73 246.312L1549.18 224.257L1527.77 227.932L1519.87 250.059Z" fill="#36B37E"/>
<path d="M1534.12 268.849L1555.95 264.879L1563.14 242.637L1541.73 246.312L1534.12 268.849Z" fill="#172B4D"/>
<path d="M1511.88 273.115L1519.87 250.059L1497.59 254.101L1489.17 277.229L1480.62 301.064L1503.72 296.431L1526.4 292.094L1534.12 268.85L1511.88 273.115Z" fill="#172B4D"/>
<path d="M1570.26 161.506L1563.45 181.854L1583.82 178.805L1577.08 199.6L1597.45 196.551L1604 176.016L1610.18 156L1590.44 158.717L1596.88 138.888L1603.2 119.766L1583.62 122L1577.11 141.382L1556.93 144.171L1549.85 164.331L1570.26 161.506Z" fill="#36B37E"/>
<path d="M1563.59 124.307L1543.37 126.872L1536.26 146.809L1556.93 144.172L1563.59 124.307Z" fill="#172B4D"/>
<path d="M1635.3 134.081L1616.2 136.467L1610.18 156.001L1629.46 153.355L1635.3 134.081Z" fill="#36B37E"/>
<path d="M1570.18 220.877L1563.14 242.637L1584.11 239.034L1604.59 235.279L1611.04 214.074L1617.33 193.352L1597.45 196.551L1590.96 217.533L1570.18 220.877Z" fill="#36B37E"/>
<path d="M1570.2 283.671L1577.33 260.981L1555.95 264.88L1548.41 287.864L1570.2 283.671Z" fill="#36B37E"/>
<path d="M1518.3 315.857L1540.73 311.332L1548.41 287.864L1526.4 292.094L1518.3 315.857Z" fill="#36B37E"/>
<path d="M1536.26 146.809L1515.37 149.482L1507.67 169.974L1529 167.228L1536.26 146.809Z" fill="#36B37E"/>
</g>
<path d="M1638.62 7.95481L1475.28 488.708L1542.47 464.605L1692.68 40.5089L1638.62 7.95481Z" fill="#C5E9DA"/>
<path d="M1650.37 68.1731L1680.88 74.035L1673.59 94.231L1650.37 68.1731Z" fill="#172B4D"/>
<path d="M1638.62 7.95481L1692.68 40.5089L1542.47 464.605L1475.28 488.708L1445.27 454.577L1436.94 427.04L1535.52 184.972L1559.46 162.785L1549.81 139.816L1594.16 26.567L1638.62 7.95481Z" stroke="#36B37E" stroke-width="1.57158" stroke-miterlimit="10" stroke-linejoin="round"/>
<path d="M1580.39 178.899L1601.32 195.011L1573.39 199.506L1580.39 178.899Z" fill="white"/>
<path d="M1638.16 194.585L1601.32 195.012L1580.39 178.899L1559.46 162.786" stroke="#36B37E" stroke-width="1.57158" stroke-miterlimit="10" stroke-linejoin="round"/>
<path d="M1601.32 195.011L1573.39 199.505L1545.28 282.639" stroke="#36B37E" stroke-width="1.57158" stroke-miterlimit="10" stroke-linejoin="round"/>
<path d="M1673.59 94.2303L1627.12 41.891L1583.44 53.9604" stroke="#36B37E" stroke-width="1.57158" stroke-miterlimit="10" stroke-linejoin="round"/>
<path d="M1596.37 50.2758L1587.18 44.4212" stroke="#36B37E" stroke-width="1.57158" stroke-miterlimit="10" stroke-linejoin="round"/>
<path d="M1538.28 303.246L1502.02 267.369L1436.94 427.039L1445.27 454.577L1475.28 488.708L1538.28 303.246Z" fill="white" stroke="#36B37E" stroke-width="1.57158" stroke-miterlimit="10" stroke-linejoin="round"/>
<path d="M1593.34 323.492L1534.08 315.61L1529.33 294.603L1540.46 299.687L1593.34 323.492Z" fill="#172B4D"/>
<defs>
<clipPath id="clip0_71549_130">
<rect width="105.273" height="67.1849" fill="white" transform="translate(432 351.165) rotate(-25.4057)"/>
</clipPath>
</defs>
</svg>
